<svg xmlns="http://www.w3.org/2000/svg" xmlns:xlink="http://www.w3.org/1999/xlink" height="100" width="100" version="1.1"><path d="M764 823l-10 10q-51 55 -91 150q-54 130 -54 263q0 149 131 228q130 78 328 111q161 26 260 26q92 0 118 -40q6 -8 6 -15q0 -30 -31 -55q-20 -17 -71 -17q-3 0 -19 1q-104 2 -127 2q-238 0 -393 -87q-112 -62 -112 -168q0 -58 19 -131q27 -105 77 -171q5 -6 8 -11
q4 -5 9 -12q6 8 11 16q66 107 175 188q88 65 232 113q148 49 223 49q60 0 97 -29q19 -15 19 -34q0 -13 -10 -22q-13 -12 -32 -14q-4 0 -56 -2q-69 -3 -212 -47q-173 -53 -258 -136q-27 -26 -99 -134q-9 -12 -14 -21q6 -5 13 -10q1 0 8 -5q70 -47 240 -74q104 -17 217 -17
q60 0 107 6q19 3 31 3q50 0 70 -44q5 -13 5 -24q0 -56 -140 -56q-156 0 -327 33q-170 32 -257 94q-1 1 -7 5q-3 2 -10 7q-4 -9 -10 -20q-27 -52 -54 -184q-26 -120 -75 -570q-32 -233 -34 -238q-7 -16 -28 -16q-60 0 -60 63q0 39 34 352q12 108 69 417q27 150 84 267z" style="" transform="scale(0.05 -0.05) translate(0 -1650)"/></svg>