<svg xmlns="http://www.w3.org/2000/svg" xmlns:xlink="http://www.w3.org/1999/xlink" height="100" width="100" version="1.1"><path d="M915 1385l-8 -57l-13 -98q-44 -300 -52 -372q-3 -26 -72 -623q-21 -249 -28 -284q-16 -99 -50 -99t-34 81q0 212 157 1297q3 20 21 159q-43 2 -63 3q-129 6 -147 28q-13 14 -13 34q0 32 36 30l59 -4q269 -19 346 -30q192 -28 236 -109q28 -50 28 -119q0 -11 -17 -211
q-11 -134 -11 -138l2 -264q1 -195 13 -311q27 -249 60 -348q13 -38 13 -63q0 -21 -18 -35q-9 -6 -14 -6q-24 0 -44 43q-44 90 -74 395q-13 139 -14 397l-1 147q0 154 22 370q3 29 3 50q0 74 -96 104q-87 28 -227 33z" style="" transform="scale(0.05 -0.05) translate(0 -1650)"/></svg>