<svg xmlns="http://www.w3.org/2000/svg" xmlns:xlink="http://www.w3.org/1999/xlink" height="100" width="100" version="1.1"><path d="M780 498q-5 59 -5 92q0 184 16 340q13 129 57 129q25 0 25 -48q0 -7 -3 -78q-4 -147 -5 -185q-5 -118 -5 -153q0 -198 52 -372q78 76 103 137q31 79 46 293q9 139 9 219l-2 94q0 73 29 73q25 0 44 -32q16 -27 16 -139q0 -199 -37 -411q144 34 194 112q27 43 31 119
q2 27 2 95q0 164 -24 259q-12 49 -54 86q-30 27 -89 61q-88 53 -111 78q-37 41 -37 105q0 103 76 170q104 91 165 91q54 0 54 -35q0 -24 -48 -45q-58 -26 -105 -58q-65 -45 -65 -123q0 -44 34 -76q18 -16 76 -46q108 -55 154 -111q57 -70 57 -401q0 -179 -76 -259
q-47 -49 -153 -90q-11 -4 -60 -23q-20 -7 -55 -21q-22 -61 -55 -103q-27 -36 -93 -95q41 -106 105 -155q62 -48 193 -112q66 -32 81 -47q14 -13 14 -29q0 -23 -21 -42q-12 -11 -29 -11q-21 0 -94 43q-35 21 -75 44q-111 64 -168 129q-76 86 -113 216q-13 44 -51 223
q-126 38 -179 80q-125 99 -125 343q0 128 16 188q16 63 117 160q81 77 114 123q29 41 29 84q0 75 -120 164q-41 31 -41 52q0 19 16 33q12 12 25 12q30 0 124 -88q83 -78 83 -159q0 -75 -59 -153q-28 -38 -92 -103q-95 -96 -111 -141q-12 -35 -12 -120q0 -156 30 -233
q31 -82 101 -120q27 -15 84 -30z" style="" transform="scale(0.05 -0.05) translate(0 -1650)"/></svg>