<svg xmlns="http://www.w3.org/2000/svg" xmlns:xlink="http://www.w3.org/1999/xlink" height="100" width="100" version="1.1"><path d="M700 1246h93h41h186q178 0 207 -5q84 -12 84 -127l-1 -83q0 -185 -1 -239q-6 -224 -6 -274q0 -231 81 -499q39 -129 39 -153q0 -36 -25 -36q-18 0 -30 21q-21 36 -70 244q-32 133 -46 297h-83h-37h-164q-190 0 -262 75q-53 55 -72 162q-8 50 -8 159q0 7 3 220
q0 331 12 411q14 91 72 120q49 25 211 34q142 8 202 8q41 0 76 -1h43l53 1q92 0 92 -45q0 -36 -69 -36l-183 4q-51 0 -109 -3q-127 -7 -160 -7q-98 2 -126 -26q-41 -43 -43 -222zM695 814v-35v-23q0 -123 26 -179q43 -92 144 -107q66 -10 256 -10q25 0 125 1q-4 49 -4 96
q0 25 3 151q1 67 1 106h-38h-17h-89l-138 1l-103 -1h-107h-18h-41zM696 881h51h23h96l71 -1l147 1q123 0 162 1q0 33 -1 66q-2 107 -1 142q1 52 -19 66q-23 15 -81 14q-37 -1 -135 -1l-175 1q-46 0 -97 -1l-38 -1q-1 -34 -1 -94q-1 -29 -2 -193z" style="" transform="scale(0.05 -0.05) translate(0 -1650)"/></svg>