<?xml version="1.0" encoding="UTF-8"?>
<svg xmlns="http://www.w3.org/2000/svg" xmlns:xlink="http://www.w3.org/1999/xlink" width="150px" height="155px" viewBox="0 0 150 154" version="1.1">
<defs>
<filter id="alpha" filterUnits="objectBoundingBox" x="0%" y="0%" width="100%" height="100%">
  <feColorMatrix type="matrix" in="SourceGraphic" values="0 0 0 0 1 0 0 0 0 1 0 0 0 0 1 0 0 0 1 0"/>
</filter>
<mask id="mask0">
  <g filter="url(#alpha)">
<rect x="0" y="0" width="150" height="154" style="fill:rgb(0%,0%,0%);fill-opacity:0.992157;stroke:none;"/>
  </g>
</mask>
<clipPath id="clip1">
  <rect x="0" y="0" width="150" height="154"/>
</clipPath>
<g id="surface5" clip-path="url(#clip1)">
<path style=" stroke:none;fill-rule:evenodd;fill:rgb(95.294118%,98.039216%,97.254902%);fill-opacity:1;" d="M 107.519531 -0.292969 C 112.011719 -0.292969 116.503906 -0.292969 120.996094 -0.292969 C 126.992188 1.109375 130.800781 4.804688 132.421875 10.792969 C 133.398438 21.480469 131.152344 31.398438 125.683594 40.542969 C 125.722656 40.285156 125.625 40.089844 125.390625 39.957031 C 111.269531 41.40625 97.109375 41.40625 82.910156 39.957031 C 82.4375 39.042969 82.242188 38.070312 82.324219 37.042969 C 80.175781 37.042969 78.027344 37.042969 75.878906 37.042969 C 75.414062 36.394531 75.121094 35.617188 75 34.707031 C 74.171875 36.886719 73.296875 39.027344 72.363281 41.125 C 63.964844 41.125 55.566406 41.125 47.167969 41.125 C 46.972656 38.015625 46.777344 38.015625 46.582031 41.125 C 43.847656 41.125 41.113281 41.125 38.378906 41.125 C 57.257812 20.449219 80.304688 6.644531 107.519531 -0.292969 Z M 107.519531 -0.292969 "/>
</g>
<mask id="mask1">
  <g filter="url(#alpha)">
<rect x="0" y="0" width="150" height="154" style="fill:rgb(0%,0%,0%);fill-opacity:0.992157;stroke:none;"/>
  </g>
</mask>
<clipPath id="clip2">
  <rect x="0" y="0" width="150" height="154"/>
</clipPath>
<g id="surface8" clip-path="url(#clip2)">
<path style=" stroke:none;fill-rule:evenodd;fill:rgb(93.333333%,96.862745%,96.862745%);fill-opacity:1;" d="M 75.878906 37.042969 C 78.027344 37.042969 80.175781 37.042969 82.324219 37.042969 C 82.242188 38.070312 82.4375 39.042969 82.910156 39.957031 C 97.109375 41.40625 111.269531 41.40625 125.390625 39.957031 C 125.625 40.089844 125.722656 40.285156 125.683594 40.542969 C 124.898438 42.976562 123.726562 45.210938 122.167969 47.25 C 126.789062 47.332031 131.085938 48.398438 135.058594 50.457031 C 115.5 51.71875 95.96875 52.109375 76.464844 51.625 C 75.722656 49.320312 75.722656 46.984375 76.464844 44.625 C 77.585938 45.132812 78.660156 45.71875 79.6875 46.375 C 79.292969 44.394531 78.316406 42.644531 76.757812 41.125 C 76.183594 39.816406 75.890625 38.457031 75.878906 37.042969 Z M 75.878906 37.042969 "/>
</g>
<mask id="mask2">
  <g filter="url(#alpha)">
<rect x="0" y="0" width="150" height="154" style="fill:rgb(0%,0%,0%);fill-opacity:0.996078;stroke:none;"/>
  </g>
</mask>
<clipPath id="clip3">
  <rect x="0" y="0" width="150" height="154"/>
</clipPath>
<g id="surface11" clip-path="url(#clip3)">
<path style=" stroke:none;fill-rule:evenodd;fill:rgb(91.764706%,95.686275%,96.470588%);fill-opacity:1;" d="M 135.058594 50.457031 C 142.25 54.472656 145.179688 60.5 143.847656 68.542969 C 127.257812 67.378906 110.460938 66.992188 93.457031 67.375 C 93.457031 66.792969 93.457031 66.207031 93.457031 65.625 C 93.519531 64.527344 93.226562 64.335938 92.578125 65.042969 C 92.289062 65.796875 92.191406 66.574219 92.285156 67.375 C 88.964844 67.375 85.644531 67.375 82.324219 67.375 C 78.6875 65.574219 76.828125 62.65625 76.757812 58.625 C 78.027344 59.5 79.296875 60.375 80.566406 61.25 C 81.230469 61.6875 81.816406 61.589844 82.324219 60.957031 C 80.507812 59.15625 78.945312 57.210938 77.636719 55.125 C 76.914062 54.078125 76.527344 52.910156 76.464844 51.625 C 95.96875 52.109375 115.5 51.71875 135.058594 50.457031 Z M 135.058594 50.457031 "/>
</g>
<mask id="mask3">
  <g filter="url(#alpha)">
<rect x="0" y="0" width="150" height="154" style="fill:rgb(0%,0%,0%);fill-opacity:0.988235;stroke:none;"/>
  </g>
</mask>
<clipPath id="clip4">
  <rect x="0" y="0" width="150" height="154"/>
</clipPath>
<g id="surface14" clip-path="url(#clip4)">
<path style=" stroke:none;fill-rule:evenodd;fill:rgb(92.156863%,95.686275%,96.470588%);fill-opacity:1;" d="M 38.378906 41.125 C 41.113281 41.125 43.847656 41.125 46.582031 41.125 C 46.023438 50.089844 45.242188 59.035156 44.238281 67.957031 C 35.449219 67.957031 26.660156 67.957031 17.871094 67.957031 C 23.363281 58.015625 30.199219 49.070312 38.378906 41.125 Z M 38.378906 41.125 "/>
</g>
<mask id="mask4">
  <g filter="url(#alpha)">
<rect x="0" y="0" width="150" height="154" style="fill:rgb(0%,0%,0%);fill-opacity:0.996078;stroke:none;"/>
  </g>
</mask>
<clipPath id="clip5">
  <rect x="0" y="0" width="150" height="154"/>
</clipPath>
<g id="surface17" clip-path="url(#clip5)">
<path style=" stroke:none;fill-rule:evenodd;fill:rgb(89.411765%,94.117647%,96.078431%);fill-opacity:1;" d="M 93.457031 67.375 C 110.460938 66.992188 127.257812 67.378906 143.847656 68.542969 C 143.15625 74.878906 141.398438 80.90625 138.574219 86.625 C 124.511719 86.625 110.449219 86.625 96.386719 86.625 C 94.921875 80.300781 93.945312 73.882812 93.457031 67.375 Z M 93.457031 67.375 "/>
</g>
<mask id="mask5">
  <g filter="url(#alpha)">
<rect x="0" y="0" width="150" height="154" style="fill:rgb(0%,0%,0%);fill-opacity:0.992157;stroke:none;"/>
  </g>
</mask>
<clipPath id="clip6">
  <rect x="0" y="0" width="150" height="154"/>
</clipPath>
<g id="surface20" clip-path="url(#clip6)">
<path style=" stroke:none;fill-rule:evenodd;fill:rgb(87.45098%,92.941176%,95.686275%);fill-opacity:1;" d="M 17.871094 67.957031 C 26.660156 67.957031 35.449219 67.957031 44.238281 67.957031 C 43.609375 73.214844 43.121094 78.464844 42.773438 83.707031 C 43.019531 83.023438 43.410156 82.441406 43.945312 81.957031 C 43.519531 86.441406 42.835938 90.914062 41.894531 95.375 C 41.765625 96.449219 41.570312 97.519531 41.308594 98.582031 C 42.066406 99.117188 42.457031 100.089844 42.480469 101.5 C 42.394531 103.109375 42.003906 104.566406 41.308594 105.875 C 40.746094 103.984375 39.964844 102.234375 38.964844 100.625 C 37.847656 98.003906 37.066406 95.285156 36.621094 92.457031 C 37.972656 93.355469 39.339844 94.035156 40.722656 94.5 C 36.191406 86.996094 33.164062 78.925781 31.640625 70.292969 C 31.308594 77.40625 29.355469 84.019531 25.78125 90.125 C 24.707031 91.195312 23.632812 92.265625 22.558594 93.332031 C 24.582031 93.257812 26.4375 92.574219 28.125 91.292969 C 28.238281 92.0625 28.140625 92.839844 27.832031 93.625 C 27.085938 94.914062 26.5 96.277344 26.074219 97.707031 C 24.734375 99.820312 23.171875 101.765625 21.386719 103.542969 C 15.332031 103.542969 9.277344 103.542969 3.222656 103.542969 C 6.023438 90.78125 10.90625 78.917969 17.871094 67.957031 Z M 17.871094 67.957031 "/>
</g>
<mask id="mask6">
  <g filter="url(#alpha)">
<rect x="0" y="0" width="150" height="154" style="fill:rgb(0%,0%,0%);fill-opacity:0.996078;stroke:none;"/>
  </g>
</mask>
<clipPath id="clip7">
  <rect x="0" y="0" width="150" height="154"/>
</clipPath>
<g id="surface23" clip-path="url(#clip7)">
<path style=" stroke:none;fill-rule:evenodd;fill:rgb(86.27451%,92.156863%,95.686275%);fill-opacity:1;" d="M 96.386719 86.625 C 110.449219 86.625 124.511719 86.625 138.574219 86.625 C 135.839844 91.679688 133.105469 96.734375 130.371094 101.792969 C 128.613281 101.792969 126.855469 101.792969 125.097656 101.792969 C 117.296875 103.144531 111.4375 107.230469 107.519531 114.042969 C 104.144531 113.429688 101.410156 114.402344 99.316406 116.957031 C 98.558594 116.632812 98.074219 116.050781 97.851562 115.207031 C 96.972656 112.890625 96.875 110.558594 97.558594 108.207031 C 98.082031 108.796875 98.472656 108.796875 98.730469 108.207031 C 97.894531 107.140625 97.601562 105.972656 97.851562 104.707031 C 98.097656 105.390625 98.488281 105.976562 99.023438 106.457031 C 99.121094 106.265625 99.21875 106.070312 99.316406 105.875 C 96.933594 100.050781 95.664062 94.023438 95.507812 87.792969 C 95.753906 88.476562 96.144531 89.058594 96.679688 89.542969 C 96.667969 88.605469 96.570312 87.632812 96.386719 86.625 Z M 96.386719 86.625 "/>
</g>
<mask id="mask7">
  <g filter="url(#alpha)">
<rect x="0" y="0" width="150" height="154" style="fill:rgb(0%,0%,0%);fill-opacity:0.992157;stroke:none;"/>
  </g>
</mask>
<clipPath id="clip8">
  <rect x="0" y="0" width="150" height="154"/>
</clipPath>
<g id="surface26" clip-path="url(#clip8)">
<path style=" stroke:none;fill-rule:evenodd;fill:rgb(19.215686%,30.196078%,42.745098%);fill-opacity:1;" d="M 138.574219 103.542969 C 142.03125 105.164062 144.574219 107.691406 146.191406 111.125 C 145.234375 111.855469 144.550781 112.824219 144.140625 114.042969 C 142.304688 118.273438 140.644531 122.550781 139.160156 126.875 C 137.539062 127.082031 135.976562 127.472656 134.472656 128.042969 C 131.808594 129.4375 129.953125 131.574219 128.90625 134.457031 C 128.265625 138.121094 127.875 141.816406 127.734375 145.542969 C 127.308594 145.867188 126.820312 146.0625 126.269531 146.125 C 124.558594 145.367188 122.800781 144.785156 120.996094 144.375 C 120.996094 144.179688 120.996094 143.984375 120.996094 143.792969 C 127.304688 130.636719 133.164062 117.21875 138.574219 103.542969 Z M 138.574219 103.542969 "/>
</g>
<mask id="mask8">
  <g filter="url(#alpha)">
<rect x="0" y="0" width="150" height="154" style="fill:rgb(0%,0%,0%);fill-opacity:0.976471;stroke:none;"/>
  </g>
</mask>
<clipPath id="clip9">
  <rect x="0" y="0" width="150" height="154"/>
</clipPath>
<g id="surface29" clip-path="url(#clip9)">
<path style=" stroke:none;fill-rule:evenodd;fill:rgb(14.901961%,26.666667%,37.647059%);fill-opacity:1;" d="M 146.191406 111.125 C 147.828125 113.871094 149 116.789062 149.707031 119.875 C 149.707031 124.542969 149.707031 129.207031 149.707031 133.875 C 149.121094 135.820312 148.535156 137.765625 147.949219 139.707031 C 149.195312 132.589844 146.265625 128.3125 139.160156 126.875 C 140.644531 122.550781 142.304688 118.273438 144.140625 114.042969 C 144.550781 112.824219 145.234375 111.855469 146.191406 111.125 Z M 146.191406 111.125 "/>
</g>
<mask id="mask9">
  <g filter="url(#alpha)">
<rect x="0" y="0" width="150" height="154" style="fill:rgb(0%,0%,0%);fill-opacity:0.996078;stroke:none;"/>
  </g>
</mask>
<clipPath id="clip10">
  <rect x="0" y="0" width="150" height="154"/>
</clipPath>
<g id="surface32" clip-path="url(#clip10)">
<path style=" stroke:none;fill-rule:evenodd;fill:rgb(82.352941%,89.803922%,94.901961%);fill-opacity:1;" d="M 3.222656 103.542969 C 9.277344 103.542969 15.332031 103.542969 21.386719 103.542969 C 20.1875 105.214844 18.625 106.476562 16.699219 107.332031 C 19.242188 106.902344 21.683594 106.027344 24.023438 104.707031 C 23.894531 105.847656 23.40625 106.917969 22.558594 107.917969 C 24.179688 108.039062 25.644531 107.554688 26.953125 106.457031 C 27.1875 106.589844 27.285156 106.785156 27.246094 107.042969 C 26.222656 109.273438 25.050781 111.414062 23.730469 113.457031 C 21.109375 116.550781 18.179688 119.371094 14.941406 121.917969 C 18.09375 122.101562 20.925781 121.226562 23.4375 119.292969 C 21.078125 123.195312 17.855469 126.402344 13.769531 128.917969 C 16.175781 128.761719 18.519531 128.375 20.800781 127.75 C 19.890625 129.085938 18.914062 130.347656 17.871094 131.542969 C 13.542969 133.898438 10.808594 137.398438 9.667969 142.042969 C 6.292969 140.808594 3.363281 141.394531 0.878906 143.792969 C 0.628906 142.328125 0.238281 140.964844 -0.292969 139.707031 C -0.292969 133.484375 -0.292969 127.265625 -0.292969 121.042969 C 0.503906 115.140625 1.675781 109.304688 3.222656 103.542969 Z M 3.222656 103.542969 "/>
</g>
<mask id="mask10">
  <g filter="url(#alpha)">
<rect x="0" y="0" width="150" height="154" style="fill:rgb(0%,0%,0%);fill-opacity:0.996078;stroke:none;"/>
  </g>
</mask>
<clipPath id="clip11">
  <rect x="0" y="0" width="150" height="154"/>
</clipPath>
<g id="surface35" clip-path="url(#clip11)">
<path style=" stroke:none;fill-rule:evenodd;fill:rgb(29.019608%,40%,55.686275%);fill-opacity:1;" d="M 125.097656 101.792969 C 119.167969 115.035156 113.699219 128.453125 108.691406 142.042969 C 103.867188 142.46875 101.425781 144.996094 101.367188 149.625 C 101.828125 150.667969 102.511719 151.542969 103.417969 152.25 C 99.777344 151.492188 96.066406 150.8125 92.285156 150.207031 C 89.554688 150.203125 87.601562 151.371094 86.425781 153.707031 C 82.910156 153.707031 79.394531 153.707031 75.878906 153.707031 C 74.824219 153.148438 73.652344 152.761719 72.363281 152.542969 C 70.246094 151.40625 69.074219 149.65625 68.847656 147.292969 C 69.433594 146.320312 70.214844 145.542969 71.191406 144.957031 C 72.316406 144.453125 73.488281 144.066406 74.707031 143.792969 C 75.230469 143.4375 75.816406 143.242188 76.464844 143.207031 C 80.15625 142.730469 83.867188 142.535156 87.597656 142.625 C 88.273438 139.132812 90.421875 137.09375 94.042969 136.5 C 97.1875 136.398438 100.3125 136.109375 103.417969 135.625 C 102.984375 135.226562 102.59375 134.839844 102.246094 134.457031 C 102.246094 127.265625 104.003906 120.460938 107.519531 114.042969 C 111.4375 107.230469 117.296875 103.144531 125.097656 101.792969 Z M 125.097656 101.792969 "/>
</g>
<mask id="mask11">
  <g filter="url(#alpha)">
<rect x="0" y="0" width="150" height="154" style="fill:rgb(0%,0%,0%);fill-opacity:0.984314;stroke:none;"/>
  </g>
</mask>
<clipPath id="clip12">
  <rect x="0" y="0" width="150" height="154"/>
</clipPath>
<g id="surface38" clip-path="url(#clip12)">
<path style=" stroke:none;fill-rule:evenodd;fill:rgb(27.843137%,49.411765%,64.705882%);fill-opacity:1;" d="M 33.691406 132.125 C 38.140625 133.988281 42.632812 135.738281 47.167969 137.375 C 43.953125 137.746094 40.632812 137.746094 37.207031 137.375 C 37.085938 138.476562 37.476562 139.351562 38.378906 140 C 37.8125 142.371094 37.617188 144.800781 37.792969 147.292969 C 35.664062 147.773438 33.515625 148.160156 31.347656 148.457031 C 20.992188 148.539062 10.640625 148.734375 0.292969 149.042969 C 0.15625 147.226562 0.351562 145.476562 0.878906 143.792969 C 3.363281 141.394531 6.292969 140.808594 9.667969 142.042969 C 12.398438 143.066406 14.839844 144.621094 16.992188 146.707031 C 19.453125 143.101562 22.871094 140.863281 27.246094 140 C 39.464844 139.816406 39.269531 139.035156 26.660156 137.667969 C 28.769531 137.039062 30.917969 136.550781 33.105469 136.207031 C 33.675781 134.898438 33.871094 133.539062 33.691406 132.125 Z M 33.691406 132.125 "/>
</g>
<mask id="mask12">
  <g filter="url(#alpha)">
<rect x="0" y="0" width="150" height="154" style="fill:rgb(0%,0%,0%);fill-opacity:0.886275;stroke:none;"/>
  </g>
</mask>
<clipPath id="clip13">
  <rect x="0" y="0" width="150" height="154"/>
</clipPath>
<g id="surface41" clip-path="url(#clip13)">
<path style=" stroke:none;fill-rule:evenodd;fill:rgb(13.72549%,23.921569%,38.039216%);fill-opacity:1;" d="M 37.792969 147.292969 C 37.941406 148.628906 37.746094 149.894531 37.207031 151.082031 C 34.285156 151.519531 31.355469 151.910156 28.417969 152.25 C 28.09375 152.472656 27.898438 152.765625 27.832031 153.125 C 22.578125 152.6875 17.304688 152.394531 12.011719 152.25 C 16.660156 150.382812 21.445312 149.703125 26.367188 150.207031 C 28.113281 149.664062 29.773438 149.078125 31.347656 148.457031 C 33.515625 148.160156 35.664062 147.773438 37.792969 147.292969 Z M 37.792969 147.292969 "/>
</g>
</defs>
<g id="surface1">
<use xlink:href="#surface5" mask="url(#mask0)"/>
<path style=" stroke:none;fill-rule:evenodd;fill:rgb(99.607843%,99.607843%,99.607843%);fill-opacity:1;" d="M 95.800781 22.457031 C 105.4375 22.71875 110.710938 27.582031 111.621094 37.042969 C 102.046875 37.046875 92.476562 36.851562 82.910156 36.457031 C 83.753906 28.617188 88.050781 23.953125 95.800781 22.457031 Z M 95.800781 22.457031 "/>
<use xlink:href="#surface8" mask="url(#mask1)"/>
<path style=" stroke:none;fill-rule:evenodd;fill:rgb(92.156863%,95.686275%,96.078431%);fill-opacity:1;" d="M 47.167969 41.125 C 55.566406 41.125 63.964844 41.125 72.363281 41.125 C 71.738281 42.628906 70.761719 43.890625 69.433594 44.917969 C 71.546875 45.230469 73.304688 44.546875 74.707031 42.875 C 75.640625 50.78125 73.296875 57.585938 67.675781 63.292969 C 64.664062 63.867188 61.539062 64.0625 58.300781 63.875 C 57.695312 58.617188 57.011719 53.367188 56.25 48.125 C 56.425781 59.941406 55.253906 71.605469 52.734375 83.125 C 52.511719 82.800781 52.21875 82.605469 51.855469 82.542969 C 51.691406 80.164062 51.300781 77.832031 50.683594 75.542969 C 51.121094 74.238281 51.609375 74.433594 52.148438 76.125 C 50.046875 64.542969 48.386719 52.878906 47.167969 41.125 Z M 47.167969 41.125 "/>
<use xlink:href="#surface11" mask="url(#mask2)"/>
<use xlink:href="#surface14" mask="url(#mask3)"/>
<path style=" stroke:none;fill-rule:evenodd;fill:rgb(16.470588%,23.137255%,35.686275%);fill-opacity:1;" d="M 75.878906 37.042969 C 75.890625 38.457031 76.183594 39.816406 76.757812 41.125 C 78.316406 42.644531 79.292969 44.394531 79.6875 46.375 C 78.660156 45.71875 77.585938 45.132812 76.464844 44.625 C 75.722656 46.984375 75.722656 49.320312 76.464844 51.625 C 76.527344 52.910156 76.914062 54.078125 77.636719 55.125 C 77.523438 56.53125 76.742188 57.113281 75.292969 56.875 C 73.289062 59.648438 70.75 61.789062 67.675781 63.292969 C 73.296875 57.585938 75.640625 50.78125 74.707031 42.875 C 73.304688 44.546875 71.546875 45.230469 69.433594 44.917969 C 70.761719 43.890625 71.738281 42.628906 72.363281 41.125 C 73.296875 39.027344 74.171875 36.886719 75 34.707031 C 75.121094 35.617188 75.414062 36.394531 75.878906 37.042969 Z M 75.878906 37.042969 "/>
<path style=" stroke:none;fill-rule:evenodd;fill:rgb(69.803922%,81.568627%,87.843137%);fill-opacity:1;" d="M 58.300781 63.875 C 59.074219 68.605469 59.953125 73.269531 60.9375 77.875 C 59.777344 76.324219 59.289062 76.613281 59.472656 78.75 C 59.835938 81.386719 60.226562 84.011719 60.644531 86.625 C 61.992188 91.128906 63.261719 95.597656 64.453125 100.042969 C 63.8125 98.964844 63.03125 97.992188 62.109375 97.125 C 61.726562 98.136719 61.824219 99.109375 62.402344 100.042969 C 62.199219 100.738281 61.90625 100.738281 61.523438 100.042969 C 61.425781 100.722656 61.328125 101.402344 61.230469 102.082031 C 61.992188 106.582031 63.164062 110.957031 64.746094 115.207031 C 63.808594 115.847656 62.929688 116.625 62.109375 117.542969 C 60.414062 114.585938 57.976562 112.640625 54.785156 111.707031 C 54.160156 110.425781 53.769531 109.0625 53.613281 107.625 C 53.5625 106.34375 53.367188 105.078125 53.027344 103.832031 C 53.230469 102.914062 53.621094 102.234375 54.199219 101.792969 C 53.773438 100.828125 53.675781 99.855469 53.90625 98.875 C 54.859375 100.40625 56.03125 101.769531 57.421875 102.957031 C 55.484375 96.21875 53.628906 89.414062 51.855469 82.542969 C 52.21875 82.605469 52.511719 82.800781 52.734375 83.125 C 55.253906 71.605469 56.425781 59.941406 56.25 48.125 C 57.011719 53.367188 57.695312 58.617188 58.300781 63.875 Z M 58.300781 63.875 "/>
<path style=" stroke:none;fill-rule:evenodd;fill:rgb(17.254902%,27.058824%,39.607843%);fill-opacity:1;" d="M 77.636719 55.125 C 78.945312 57.210938 80.507812 59.15625 82.324219 60.957031 C 81.816406 61.589844 81.230469 61.6875 80.566406 61.25 C 79.296875 60.375 78.027344 59.5 76.757812 58.625 C 76.828125 62.65625 78.6875 65.574219 82.324219 67.375 C 83.988281 69.054688 83.695312 70.414062 81.445312 71.457031 C 79.070312 70.066406 77.3125 68.121094 76.171875 65.625 C 75.878906 67.167969 75.78125 68.722656 75.878906 70.292969 C 75.683594 70.292969 75.488281 70.292969 75.292969 70.292969 C 75.386719 69.300781 75.289062 68.328125 75 67.375 C 74.539062 69.320312 73.855469 71.167969 72.949219 72.917969 C 70.855469 73.160156 68.707031 73.0625 66.503906 72.625 C 69.796875 70.417969 72.628906 67.695312 75 64.457031 C 75.292969 61.9375 75.390625 59.410156 75.292969 56.875 C 76.742188 57.113281 77.523438 56.53125 77.636719 55.125 Z M 77.636719 55.125 "/>
<use xlink:href="#surface17" mask="url(#mask4)"/>
<use xlink:href="#surface20" mask="url(#mask5)"/>
<path style=" stroke:none;fill-rule:evenodd;fill:rgb(88.235294%,92.941176%,94.901961%);fill-opacity:1;" d="M 75.292969 56.875 C 75.390625 59.410156 75.292969 61.9375 75 64.457031 C 72.628906 67.695312 69.796875 70.417969 66.503906 72.625 C 68.707031 73.0625 70.855469 73.160156 72.949219 72.917969 C 73.855469 71.167969 74.539062 69.320312 75 67.375 C 75.289062 68.328125 75.386719 69.300781 75.292969 70.292969 C 75.117188 72.394531 74.433594 74.339844 73.242188 76.125 C 70.898438 79.332031 68.457031 82.441406 65.917969 85.457031 C 64.367188 86.472656 62.609375 86.863281 60.644531 86.625 C 60.226562 84.011719 59.835938 81.386719 59.472656 78.75 C 59.289062 76.613281 59.777344 76.324219 60.9375 77.875 C 59.953125 73.269531 59.074219 68.605469 58.300781 63.875 C 61.539062 64.0625 64.664062 63.867188 67.675781 63.292969 C 70.75 61.789062 73.289062 59.648438 75.292969 56.875 Z M 75.292969 56.875 "/>
<path style=" stroke:none;fill-rule:evenodd;fill:rgb(69.803922%,81.960784%,87.843137%);fill-opacity:1;" d="M 93.457031 65.625 C 93.457031 66.207031 93.457031 66.792969 93.457031 67.375 C 93.945312 73.882812 94.921875 80.300781 96.386719 86.625 C 96.570312 87.632812 96.667969 88.605469 96.679688 89.542969 C 96.144531 89.058594 95.753906 88.476562 95.507812 87.792969 C 95.664062 94.023438 96.933594 100.050781 99.316406 105.875 C 99.21875 106.070312 99.121094 106.265625 99.023438 106.457031 C 98.488281 105.976562 98.097656 105.390625 97.851562 104.707031 C 97.601562 105.972656 97.894531 107.140625 98.730469 108.207031 C 98.472656 108.796875 98.082031 108.796875 97.558594 108.207031 C 96.875 110.558594 96.972656 112.890625 97.851562 115.207031 C 98.074219 116.050781 98.558594 116.632812 99.316406 116.957031 C 97.84375 119.117188 96.671875 121.449219 95.800781 123.957031 C 93.132812 122.679688 90.398438 122.488281 87.597656 123.375 C 86.890625 123.121094 86.304688 122.734375 85.839844 122.207031 C 88.65625 117.386719 90.121094 112.136719 90.234375 106.457031 C 89.757812 107.308594 89.269531 107.503906 88.769531 107.042969 C 89.578125 105.980469 90.164062 104.8125 90.527344 103.542969 C 91.445312 101.433594 91.152344 101.042969 89.648438 102.375 C 90.359375 99.632812 91.042969 96.8125 91.699219 93.917969 C 91.492188 92.105469 91.199219 92.203125 90.820312 94.207031 C 90.4375 94.90625 90.144531 94.90625 89.941406 94.207031 C 90.539062 92.101562 91.027344 89.960938 91.40625 87.792969 C 91.945312 80.300781 92.632812 72.914062 93.457031 65.625 Z M 93.457031 65.625 "/>
<path style=" stroke:none;fill-rule:evenodd;fill:rgb(5.882353%,30.980392%,39.215686%);fill-opacity:1;" d="M 36.621094 92.457031 C 35.890625 92.503906 35.402344 92.890625 35.15625 93.625 C 34.375 92.847656 33.59375 92.070312 32.8125 91.292969 C 31.890625 93.832031 30.914062 94.023438 29.882812 91.875 C 29.273438 92.582031 28.589844 93.164062 27.832031 93.625 C 28.140625 92.839844 28.238281 92.0625 28.125 91.292969 C 26.4375 92.574219 24.582031 93.257812 22.558594 93.332031 C 23.632812 92.265625 24.707031 91.195312 25.78125 90.125 C 29.355469 84.019531 31.308594 77.40625 31.640625 70.292969 C 33.164062 78.925781 36.191406 86.996094 40.722656 94.5 C 39.339844 94.035156 37.972656 93.355469 36.621094 92.457031 Z M 36.621094 92.457031 "/>
<path style=" stroke:none;fill-rule:evenodd;fill:rgb(19.215686%,31.764706%,43.529412%);fill-opacity:1;" d="M 75.292969 70.292969 C 75.488281 70.292969 75.683594 70.292969 75.878906 70.292969 C 76.613281 72.535156 77.6875 74.671875 79.101562 76.707031 C 81.234375 78.628906 83.089844 80.769531 84.667969 83.125 C 83.25 84.027344 83.25 85 84.667969 86.042969 C 83.015625 86.3125 81.550781 85.730469 80.273438 84.292969 C 78.957031 82.640625 77.785156 80.890625 76.757812 79.042969 C 76.0625 81.882812 76.648438 84.410156 78.515625 86.625 C 80.902344 88.929688 83.34375 91.164062 85.839844 93.332031 C 84.863281 93.722656 83.886719 93.722656 82.910156 93.332031 C 81.640625 92.457031 80.371094 91.582031 79.101562 90.707031 C 78.449219 91.414062 77.765625 91.414062 77.050781 90.707031 C 76.492188 91.609375 76.296875 92.582031 76.464844 93.625 C 76.207031 92.257812 75.621094 91.089844 74.707031 90.125 C 74.804688 87.394531 74.707031 84.671875 74.414062 81.957031 C 73.820312 83.679688 72.75 84.066406 71.191406 83.125 C 70.128906 83.890625 69.152344 84.765625 68.261719 85.75 C 67.34375 86.195312 66.5625 86.097656 65.917969 85.457031 C 68.457031 82.441406 70.898438 79.332031 73.242188 76.125 C 74.433594 74.339844 75.117188 72.394531 75.292969 70.292969 Z M 75.292969 70.292969 "/>
<path style=" stroke:none;fill-rule:evenodd;fill:rgb(26.666667%,49.803922%,63.921569%);fill-opacity:1;" d="M 47.167969 41.125 C 48.386719 52.878906 50.046875 64.542969 52.148438 76.125 C 51.609375 74.433594 51.121094 74.238281 50.683594 75.542969 C 49.78125 75.074219 48.804688 74.878906 47.753906 74.957031 C 47.304688 81.796875 46.523438 88.601562 45.410156 95.375 C 44.238281 95.375 43.066406 95.375 41.894531 95.375 C 42.835938 90.914062 43.519531 86.441406 43.945312 81.957031 C 43.410156 82.441406 43.019531 83.023438 42.773438 83.707031 C 43.121094 78.464844 43.609375 73.214844 44.238281 67.957031 C 45.242188 59.035156 46.023438 50.089844 46.582031 41.125 C 46.777344 38.015625 46.972656 38.015625 47.167969 41.125 Z M 47.167969 41.125 "/>
<path style=" stroke:none;fill-rule:evenodd;fill:rgb(84.705882%,90.588235%,94.509804%);fill-opacity:1;" d="M 74.707031 90.125 C 74.304688 93.265625 73.230469 96.183594 71.484375 98.875 C 69.042969 102.082031 66.601562 105.292969 64.160156 108.5 C 66.414062 108.296875 68.269531 107.226562 69.726562 105.292969 C 69.546875 106.425781 69.546875 107.589844 69.726562 108.792969 C 71.878906 106.839844 73.441406 104.507812 74.414062 101.792969 C 74.675781 104.644531 74.1875 107.367188 72.949219 109.957031 C 72.476562 111.675781 71.695312 113.230469 70.605469 114.625 C 68.613281 114.53125 66.660156 114.726562 64.746094 115.207031 C 63.164062 110.957031 61.992188 106.582031 61.230469 102.082031 C 61.328125 101.402344 61.425781 100.722656 61.523438 100.042969 C 61.90625 100.738281 62.199219 100.738281 62.402344 100.042969 C 61.824219 99.109375 61.726562 98.136719 62.109375 97.125 C 63.03125 97.992188 63.8125 98.964844 64.453125 100.042969 C 63.261719 95.597656 61.992188 91.128906 60.644531 86.625 C 62.609375 86.863281 64.367188 86.472656 65.917969 85.457031 C 66.5625 86.097656 67.34375 86.195312 68.261719 85.75 C 69.152344 84.765625 70.128906 83.890625 71.191406 83.125 C 72.75 84.066406 73.820312 83.679688 74.414062 81.957031 C 74.707031 84.671875 74.804688 87.394531 74.707031 90.125 Z M 74.707031 90.125 "/>
<path style=" stroke:none;fill-rule:evenodd;fill:rgb(86.27451%,92.156863%,94.901961%);fill-opacity:1;" d="M 93.457031 65.625 C 92.632812 72.914062 91.945312 80.300781 91.40625 87.792969 C 91.027344 89.960938 90.539062 92.101562 89.941406 94.207031 C 90.144531 94.90625 90.4375 94.90625 90.820312 94.207031 C 91.199219 92.203125 91.492188 92.105469 91.699219 93.917969 C 91.042969 96.8125 90.359375 99.632812 89.648438 102.375 C 91.152344 101.042969 91.445312 101.433594 90.527344 103.542969 C 87.988281 103.542969 85.449219 103.542969 82.910156 103.542969 C 79.464844 101.171875 77.316406 97.863281 76.464844 93.625 C 76.296875 92.582031 76.492188 91.609375 77.050781 90.707031 C 77.765625 91.414062 78.449219 91.414062 79.101562 90.707031 C 80.371094 91.582031 81.640625 92.457031 82.910156 93.332031 C 83.886719 93.722656 84.863281 93.722656 85.839844 93.332031 C 83.34375 91.164062 80.902344 88.929688 78.515625 86.625 C 76.648438 84.410156 76.0625 81.882812 76.757812 79.042969 C 77.785156 80.890625 78.957031 82.640625 80.273438 84.292969 C 81.550781 85.730469 83.015625 86.3125 84.667969 86.042969 C 83.25 85 83.25 84.027344 84.667969 83.125 C 83.089844 80.769531 81.234375 78.628906 79.101562 76.707031 C 77.6875 74.671875 76.613281 72.535156 75.878906 70.292969 C 75.78125 68.722656 75.878906 67.167969 76.171875 65.625 C 77.3125 68.121094 79.070312 70.066406 81.445312 71.457031 C 83.695312 70.414062 83.988281 69.054688 82.324219 67.375 C 85.644531 67.375 88.964844 67.375 92.285156 67.375 C 92.191406 66.574219 92.289062 65.796875 92.578125 65.042969 C 93.226562 64.335938 93.519531 64.527344 93.457031 65.625 Z M 93.457031 65.625 "/>
<use xlink:href="#surface23" mask="url(#mask6)"/>
<path style=" stroke:none;fill-rule:evenodd;fill:rgb(1.176471%,19.215686%,26.27451%);fill-opacity:1;" d="M 36.621094 92.457031 C 37.066406 95.285156 37.847656 98.003906 38.964844 100.625 C 38.332031 100.601562 37.746094 100.40625 37.207031 100.042969 C 36.800781 100.347656 36.507812 100.738281 36.328125 101.207031 C 34.78125 100.347656 33.511719 99.179688 32.519531 97.707031 C 31.996094 101.542969 31.3125 101.542969 30.46875 97.707031 C 29.6875 98.484375 28.90625 99.265625 28.125 100.042969 C 27.929688 99.070312 27.734375 98.097656 27.539062 97.125 C 27.144531 97.5625 26.65625 97.757812 26.074219 97.707031 C 26.5 96.277344 27.085938 94.914062 27.832031 93.625 C 28.589844 93.164062 29.273438 92.582031 29.882812 91.875 C 30.914062 94.023438 31.890625 93.832031 32.8125 91.292969 C 33.59375 92.070312 34.375 92.847656 35.15625 93.625 C 35.402344 92.890625 35.890625 92.503906 36.621094 92.457031 Z M 36.621094 92.457031 "/>
<path style=" stroke:none;fill-rule:evenodd;fill:rgb(12.156863%,20.784314%,30.980392%);fill-opacity:1;" d="M 74.707031 90.125 C 75.621094 91.089844 76.207031 92.257812 76.464844 93.625 C 77.316406 97.863281 79.464844 101.171875 82.910156 103.542969 C 83.90625 105.113281 85.273438 106.277344 87.011719 107.042969 C 84.691406 107.839844 82.738281 107.253906 81.152344 105.292969 C 80.761719 105.679688 80.371094 106.070312 79.980469 106.457031 C 78.367188 105.53125 77.292969 104.167969 76.757812 102.375 C 76.628906 104.75 76.921875 107.082031 77.636719 109.375 C 77.257812 109.199219 76.863281 109.003906 76.464844 108.792969 C 75.320312 109.300781 74.148438 109.6875 72.949219 109.957031 C 74.1875 107.367188 74.675781 104.644531 74.414062 101.792969 C 73.441406 104.507812 71.878906 106.839844 69.726562 108.792969 C 69.546875 107.589844 69.546875 106.425781 69.726562 105.292969 C 68.269531 107.226562 66.414062 108.296875 64.160156 108.5 C 66.601562 105.292969 69.042969 102.082031 71.484375 98.875 C 73.230469 96.183594 74.304688 93.265625 74.707031 90.125 Z M 74.707031 90.125 "/>
<path style=" stroke:none;fill-rule:evenodd;fill:rgb(1.568627%,27.058824%,35.294118%);fill-opacity:1;" d="M 38.964844 100.625 C 39.964844 102.234375 40.746094 103.984375 41.308594 105.875 C 41.960938 106.683594 42.546875 107.558594 43.066406 108.5 C 42.433594 108.773438 41.847656 108.675781 41.308594 108.207031 C 38.476562 104.191406 37.890625 104.386719 39.550781 108.792969 C 37.808594 108.117188 36.246094 107.144531 34.863281 105.875 C 33.703125 106.738281 32.628906 107.710938 31.640625 108.792969 C 31.445312 108.402344 31.25 108.015625 31.054688 107.625 C 30.078125 108.597656 29.101562 109.570312 28.125 110.542969 C 28.011719 109.253906 27.71875 108.085938 27.246094 107.042969 C 27.285156 106.785156 27.1875 106.589844 26.953125 106.457031 C 25.644531 107.554688 24.179688 108.039062 22.558594 107.917969 C 23.40625 106.917969 23.894531 105.847656 24.023438 104.707031 C 21.683594 106.027344 19.242188 106.902344 16.699219 107.332031 C 18.625 106.476562 20.1875 105.214844 21.386719 103.542969 C 23.171875 101.765625 24.734375 99.820312 26.074219 97.707031 C 26.65625 97.757812 27.144531 97.5625 27.539062 97.125 C 27.734375 98.097656 27.929688 99.070312 28.125 100.042969 C 28.90625 99.265625 29.6875 98.484375 30.46875 97.707031 C 31.3125 101.542969 31.996094 101.542969 32.519531 97.707031 C 33.511719 99.179688 34.78125 100.347656 36.328125 101.207031 C 36.507812 100.738281 36.800781 100.347656 37.207031 100.042969 C 37.746094 100.40625 38.332031 100.601562 38.964844 100.625 Z M 38.964844 100.625 "/>
<path style=" stroke:none;fill-rule:evenodd;fill:rgb(23.137255%,34.509804%,47.843137%);fill-opacity:1;" d="M 125.097656 101.792969 C 126.855469 101.792969 128.613281 101.792969 130.371094 101.792969 C 133.277344 101.65625 136.007812 102.238281 138.574219 103.542969 C 133.164062 117.21875 127.304688 130.636719 120.996094 143.792969 C 117.023438 142.40625 112.921875 141.824219 108.691406 142.042969 C 113.699219 128.453125 119.167969 115.035156 125.097656 101.792969 Z M 125.097656 101.792969 "/>
<path style=" stroke:none;fill-rule:evenodd;fill:rgb(81.960784%,89.019608%,93.72549%);fill-opacity:1;" d="M 82.910156 103.542969 C 85.449219 103.542969 87.988281 103.542969 90.527344 103.542969 C 90.164062 104.8125 89.578125 105.980469 88.769531 107.042969 C 89.269531 107.503906 89.757812 107.308594 90.234375 106.457031 C 90.121094 112.136719 88.65625 117.386719 85.839844 122.207031 C 83.71875 121.167969 82.058594 119.613281 80.859375 117.542969 C 79.609375 114.875 78.535156 112.152344 77.636719 109.375 C 76.921875 107.082031 76.628906 104.75 76.757812 102.375 C 77.292969 104.167969 78.367188 105.53125 79.980469 106.457031 C 80.371094 106.070312 80.761719 105.679688 81.152344 105.292969 C 82.738281 107.253906 84.691406 107.839844 87.011719 107.042969 C 85.273438 106.277344 83.90625 105.113281 82.910156 103.542969 Z M 82.910156 103.542969 "/>
<use xlink:href="#surface26" mask="url(#mask7)"/>
<path style=" stroke:none;fill-rule:evenodd;fill:rgb(76.862745%,85.098039%,89.803922%);fill-opacity:1;" d="M 41.308594 108.207031 C 41.476562 109.324219 41.28125 110.296875 40.722656 111.125 C 40.628906 110.160156 40.238281 109.382812 39.550781 108.792969 C 37.890625 104.386719 38.476562 104.191406 41.308594 108.207031 Z M 41.308594 108.207031 "/>
<path style=" stroke:none;fill-rule:evenodd;fill:rgb(0%,16.862745%,23.529412%);fill-opacity:1;" d="M 39.550781 108.792969 C 40.238281 109.382812 40.628906 110.160156 40.722656 111.125 C 41.894531 113.070312 43.066406 115.015625 44.238281 116.957031 C 44.101562 117.304688 43.808594 117.5 43.359375 117.542969 C 40.359375 116.292969 37.722656 114.542969 35.449219 112.292969 C 33.4375 114.492188 31.09375 116.242188 28.417969 117.542969 C 28.613281 116.863281 28.613281 116.085938 28.417969 115.207031 C 27.617188 116.15625 26.640625 116.449219 25.488281 116.082031 C 26.660156 115.695312 27.441406 114.917969 27.832031 113.75 C 26.472656 113.550781 25.203125 113.84375 24.023438 114.625 C 23.75 114.277344 23.652344 113.890625 23.730469 113.457031 C 25.050781 111.414062 26.222656 109.273438 27.246094 107.042969 C 27.71875 108.085938 28.011719 109.253906 28.125 110.542969 C 29.101562 109.570312 30.078125 108.597656 31.054688 107.625 C 31.25 108.015625 31.445312 108.402344 31.640625 108.792969 C 32.628906 107.710938 33.703125 106.738281 34.863281 105.875 C 36.246094 107.144531 37.808594 108.117188 39.550781 108.792969 Z M 39.550781 108.792969 "/>
<path style=" stroke:none;fill-rule:evenodd;fill:rgb(52.54902%,70.196078%,78.431373%);fill-opacity:1;" d="M 54.785156 111.707031 C 57.976562 112.640625 60.414062 114.585938 62.109375 117.542969 C 62.929688 116.625 63.808594 115.847656 64.746094 115.207031 C 66.660156 114.726562 68.613281 114.53125 70.605469 114.625 C 70.054688 116.148438 69.078125 117.3125 67.675781 118.125 C 64.933594 118.953125 62.492188 120.316406 60.351562 122.207031 C 59.875 121.4375 59.191406 121.046875 58.300781 121.042969 C 56.550781 118.152344 55.378906 115.042969 54.785156 111.707031 Z M 54.785156 111.707031 "/>
<use xlink:href="#surface29" mask="url(#mask8)"/>
<path style=" stroke:none;fill-rule:evenodd;fill:rgb(1.176471%,27.843137%,35.686275%);fill-opacity:1;" d="M 44.238281 116.957031 C 45.011719 118.101562 45.792969 119.269531 46.582031 120.457031 C 47.820312 122.042969 48.992188 123.695312 50.097656 125.417969 C 49.464844 125.691406 48.878906 125.59375 48.339844 125.125 C 46.238281 124.660156 44.285156 123.882812 42.480469 122.792969 C 41.429688 122.039062 40.453125 121.164062 39.550781 120.167969 C 39.0625 119.765625 38.671875 119.863281 38.378906 120.457031 C 39.160156 122.015625 39.941406 123.570312 40.722656 125.125 C 40.527344 125.320312 40.332031 125.515625 40.136719 125.707031 C 39.550781 125.320312 38.964844 124.929688 38.378906 124.542969 C 38.183594 124.832031 37.988281 125.125 37.792969 125.417969 C 38.570312 126.847656 39.058594 128.304688 39.257812 129.792969 C 37.078125 127.972656 35.320312 125.835938 33.984375 123.375 C 33.5625 122.820312 33.074219 122.722656 32.519531 123.082031 C 31.609375 124.632812 30.925781 126.285156 30.46875 128.042969 C 30.085938 128.738281 29.792969 128.738281 29.589844 128.042969 C 30.167969 127.109375 30.265625 126.136719 29.882812 125.125 C 28.722656 126.765625 27.453125 128.320312 26.074219 129.792969 C 26.71875 130.1875 27.304688 130.574219 27.832031 130.957031 C 24.609375 130.707031 21.484375 131.09375 18.457031 132.125 C 18.101562 132.050781 17.90625 131.859375 17.871094 131.542969 C 18.914062 130.347656 19.890625 129.085938 20.800781 127.75 C 18.519531 128.375 16.175781 128.761719 13.769531 128.917969 C 17.855469 126.402344 21.078125 123.195312 23.4375 119.292969 C 20.925781 121.226562 18.09375 122.101562 14.941406 121.917969 C 18.179688 119.371094 21.109375 116.550781 23.730469 113.457031 C 23.652344 113.890625 23.75 114.277344 24.023438 114.625 C 25.203125 113.84375 26.472656 113.550781 27.832031 113.75 C 27.441406 114.917969 26.660156 115.695312 25.488281 116.082031 C 26.640625 116.449219 27.617188 116.15625 28.417969 115.207031 C 28.613281 116.085938 28.613281 116.863281 28.417969 117.542969 C 31.09375 116.242188 33.4375 114.492188 35.449219 112.292969 C 37.722656 114.542969 40.359375 116.292969 43.359375 117.542969 C 43.808594 117.5 44.101562 117.304688 44.238281 116.957031 Z M 44.238281 116.957031 "/>
<path style=" stroke:none;fill-rule:evenodd;fill:rgb(17.254902%,41.960784%,55.294118%);fill-opacity:1;" d="M 50.683594 75.542969 C 51.300781 77.832031 51.691406 80.164062 51.855469 82.542969 C 53.628906 89.414062 55.484375 96.21875 57.421875 102.957031 C 56.03125 101.769531 54.859375 100.40625 53.90625 98.875 C 53.675781 99.855469 53.773438 100.828125 54.199219 101.792969 C 53.621094 102.234375 53.230469 102.914062 53.027344 103.832031 C 53.367188 105.078125 53.5625 106.34375 53.613281 107.625 C 53.167969 107.105469 52.582031 106.714844 51.855469 106.457031 C 50.152344 106.753906 48.492188 107.144531 46.875 107.625 C 46.398438 110.398438 45.519531 113.023438 44.238281 115.5 C 45.894531 115.296875 47.164062 114.421875 48.046875 112.875 C 48.410156 115.625 47.921875 118.15625 46.582031 120.457031 C 45.792969 119.269531 45.011719 118.101562 44.238281 116.957031 C 43.066406 115.015625 41.894531 113.070312 40.722656 111.125 C 41.28125 110.296875 41.476562 109.324219 41.308594 108.207031 C 41.847656 108.675781 42.433594 108.773438 43.066406 108.5 C 42.546875 107.558594 41.960938 106.683594 41.308594 105.875 C 42.003906 104.566406 42.394531 103.109375 42.480469 101.5 C 42.457031 100.089844 42.066406 99.117188 41.308594 98.582031 C 41.570312 97.519531 41.765625 96.449219 41.894531 95.375 C 43.066406 95.375 44.238281 95.375 45.410156 95.375 C 46.523438 88.601562 47.304688 81.796875 47.753906 74.957031 C 48.804688 74.878906 49.78125 75.074219 50.683594 75.542969 Z M 50.683594 75.542969 "/>
<path style=" stroke:none;fill-rule:evenodd;fill:rgb(9.411765%,32.941176%,46.27451%);fill-opacity:1;" d="M 53.613281 107.625 C 53.769531 109.0625 54.160156 110.425781 54.785156 111.707031 C 55.378906 115.042969 56.550781 118.152344 58.300781 121.042969 C 58.644531 121.78125 58.644531 122.363281 58.300781 122.792969 C 57.269531 122.425781 56.390625 121.84375 55.664062 121.042969 C 56.136719 125.273438 57.796875 128.96875 60.644531 132.125 C 61.070312 133.429688 61.851562 134.496094 62.988281 135.332031 C 60.355469 135.832031 57.816406 135.539062 55.371094 134.457031 C 55.175781 134.554688 54.980469 134.652344 54.785156 134.75 C 55.371094 135.332031 55.957031 135.917969 56.542969 136.5 C 54.832031 136.753906 53.269531 136.460938 51.855469 135.625 C 52.367188 135.703125 52.757812 135.507812 53.027344 135.042969 C 52.160156 132.832031 51.183594 130.695312 50.097656 128.625 C 49.523438 129.488281 48.839844 130.265625 48.046875 130.957031 C 47.660156 128.980469 47.757812 127.039062 48.339844 125.125 C 48.878906 125.59375 49.464844 125.691406 50.097656 125.417969 C 48.992188 123.695312 47.820312 122.042969 46.582031 120.457031 C 47.921875 118.15625 48.410156 115.625 48.046875 112.875 C 47.164062 114.421875 45.894531 115.296875 44.238281 115.5 C 45.519531 113.023438 46.398438 110.398438 46.875 107.625 C 48.492188 107.144531 50.152344 106.753906 51.855469 106.457031 C 52.582031 106.714844 53.167969 107.105469 53.613281 107.625 Z M 53.613281 107.625 "/>
<path style=" stroke:none;fill-rule:evenodd;fill:rgb(52.54902%,70.196078%,78.431373%);fill-opacity:1;" d="M 107.519531 114.042969 C 104.003906 120.460938 102.246094 127.265625 102.246094 134.457031 C 97.617188 130.695312 92.34375 128.363281 86.425781 127.457031 C 85.621094 126.378906 85.914062 125.601562 87.304688 125.125 C 87.585938 124.570312 87.683594 123.988281 87.597656 123.375 C 90.398438 122.488281 93.132812 122.679688 95.800781 123.957031 C 96.671875 121.449219 97.84375 119.117188 99.316406 116.957031 C 101.410156 114.402344 104.144531 113.429688 107.519531 114.042969 Z M 107.519531 114.042969 "/>
<path style=" stroke:none;fill-rule:evenodd;fill:rgb(4.313725%,10.980392%,16.078431%);fill-opacity:1;" d="M 77.636719 109.375 C 78.535156 112.152344 79.609375 114.875 80.859375 117.542969 C 82.058594 119.613281 83.71875 121.167969 85.839844 122.207031 C 86.304688 122.734375 86.890625 123.121094 87.597656 123.375 C 87.683594 123.988281 87.585938 124.570312 87.304688 125.125 C 85.914062 125.601562 85.621094 126.378906 86.425781 127.457031 C 85.03125 128.140625 83.664062 127.949219 82.324219 126.875 C 80.175781 125.222656 78.320312 123.277344 76.757812 121.042969 C 76.464844 122.585938 76.367188 124.140625 76.464844 125.707031 C 76.464844 131.542969 76.464844 137.375 76.464844 143.207031 C 75.816406 143.242188 75.230469 143.4375 74.707031 143.792969 C 74.707031 137.765625 74.707031 131.734375 74.707031 125.707031 C 74.804688 123.753906 74.707031 121.808594 74.414062 119.875 C 73.453125 121.320312 72.378906 122.679688 71.191406 123.957031 C 70.398438 124.804688 69.425781 125.191406 68.261719 125.125 C 68.355469 124.324219 68.257812 123.546875 67.96875 122.792969 C 66.476562 124.179688 64.816406 124.570312 62.988281 123.957031 C 64.800781 122.160156 66.363281 120.214844 67.675781 118.125 C 69.078125 117.3125 70.054688 116.148438 70.605469 114.625 C 71.695312 113.230469 72.476562 111.675781 72.949219 109.957031 C 74.148438 109.6875 75.320312 109.300781 76.464844 108.792969 C 76.863281 109.003906 77.257812 109.199219 77.636719 109.375 Z M 77.636719 109.375 "/>
<path style=" stroke:none;fill-rule:evenodd;fill:rgb(39.215686%,58.823529%,67.843137%);fill-opacity:1;" d="M 67.675781 118.125 C 66.363281 120.214844 64.800781 122.160156 62.988281 123.957031 C 64.816406 124.570312 66.476562 124.179688 67.96875 122.792969 C 68.257812 123.546875 68.355469 124.324219 68.261719 125.125 C 69.425781 125.191406 70.398438 124.804688 71.191406 123.957031 C 72.378906 122.679688 73.453125 121.320312 74.414062 119.875 C 74.707031 121.808594 74.804688 123.753906 74.707031 125.707031 C 68.84375 125.382812 64.15625 127.519531 60.644531 132.125 C 57.796875 128.96875 56.136719 125.273438 55.664062 121.042969 C 56.390625 121.84375 57.269531 122.425781 58.300781 122.792969 C 58.644531 122.363281 58.644531 121.78125 58.300781 121.042969 C 59.191406 121.046875 59.875 121.4375 60.351562 122.207031 C 62.492188 120.316406 64.933594 118.953125 67.675781 118.125 Z M 67.675781 118.125 "/>
<path style=" stroke:none;fill-rule:evenodd;fill:rgb(38.431373%,57.254902%,66.27451%);fill-opacity:1;" d="M 82.324219 126.875 C 82.1875 127.222656 81.894531 127.417969 81.445312 127.457031 C 79.75 126.929688 78.089844 126.34375 76.464844 125.707031 C 76.367188 124.140625 76.464844 122.585938 76.757812 121.042969 C 78.320312 123.277344 80.175781 125.222656 82.324219 126.875 Z M 82.324219 126.875 "/>
<use xlink:href="#surface32" mask="url(#mask9)"/>
<path style=" stroke:none;fill-rule:evenodd;fill:rgb(12.54902%,38.039216%,50.588235%);fill-opacity:1;" d="M 42.480469 122.792969 C 44.285156 123.882812 46.238281 124.660156 48.339844 125.125 C 47.757812 127.039062 47.660156 128.980469 48.046875 130.957031 C 48.839844 130.265625 49.523438 129.488281 50.097656 128.625 C 51.183594 130.695312 52.160156 132.832031 53.027344 135.042969 C 52.757812 135.507812 52.367188 135.703125 51.855469 135.625 C 51.207031 135.589844 50.621094 135.398438 50.097656 135.042969 C 47.113281 131.234375 44.574219 127.152344 42.480469 122.792969 Z M 42.480469 122.792969 "/>
<path style=" stroke:none;fill-rule:evenodd;fill:rgb(11.372549%,18.823529%,28.235294%);fill-opacity:1;" d="M 139.160156 126.875 C 146.265625 128.3125 149.195312 132.589844 147.949219 139.707031 C 146.964844 144.78125 145.011719 149.449219 142.089844 153.707031 C 138.574219 153.707031 135.058594 153.707031 131.542969 153.707031 C 132.410156 145.140625 133.386719 136.585938 134.472656 128.042969 C 135.976562 127.472656 137.539062 127.082031 139.160156 126.875 Z M 139.160156 126.875 "/>
<path style=" stroke:none;fill-rule:evenodd;fill:rgb(0%,16.078431%,22.352941%);fill-opacity:1;" d="M 42.480469 122.792969 C 44.574219 127.152344 47.113281 131.234375 50.097656 135.042969 C 50.097656 135.234375 50.097656 135.429688 50.097656 135.625 C 47.164062 134.320312 46.96875 135 49.511719 137.667969 C 48.738281 137.78125 47.957031 137.683594 47.167969 137.375 C 42.632812 135.738281 38.140625 133.988281 33.691406 132.125 C 31.777344 131.550781 29.824219 131.164062 27.832031 130.957031 C 27.304688 130.574219 26.71875 130.1875 26.074219 129.792969 C 27.453125 128.320312 28.722656 126.765625 29.882812 125.125 C 30.265625 126.136719 30.167969 127.109375 29.589844 128.042969 C 29.792969 128.738281 30.085938 128.738281 30.46875 128.042969 C 30.925781 126.285156 31.609375 124.632812 32.519531 123.082031 C 33.074219 122.722656 33.5625 122.820312 33.984375 123.375 C 35.320312 125.835938 37.078125 127.972656 39.257812 129.792969 C 39.058594 128.304688 38.570312 126.847656 37.792969 125.417969 C 37.988281 125.125 38.183594 124.832031 38.378906 124.542969 C 38.964844 124.929688 39.550781 125.320312 40.136719 125.707031 C 40.332031 125.515625 40.527344 125.320312 40.722656 125.125 C 39.941406 123.570312 39.160156 122.015625 38.378906 120.457031 C 38.671875 119.863281 39.0625 119.765625 39.550781 120.167969 C 40.453125 121.164062 41.429688 122.039062 42.480469 122.792969 Z M 42.480469 122.792969 "/>
<path style=" stroke:none;fill-rule:evenodd;fill:rgb(5.882353%,10.980392%,20%);fill-opacity:1;" d="M 76.464844 125.707031 C 78.089844 126.34375 79.75 126.929688 81.445312 127.457031 C 81.894531 127.417969 82.1875 127.222656 82.324219 126.875 C 83.664062 127.949219 85.03125 128.140625 86.425781 127.457031 C 92.34375 128.363281 97.617188 130.695312 102.246094 134.457031 C 102.59375 134.839844 102.984375 135.226562 103.417969 135.625 C 100.3125 136.109375 97.1875 136.398438 94.042969 136.5 C 90.421875 137.09375 88.273438 139.132812 87.597656 142.625 C 83.867188 142.535156 80.15625 142.730469 76.464844 143.207031 C 76.464844 137.375 76.464844 131.542969 76.464844 125.707031 Z M 76.464844 125.707031 "/>
<path style=" stroke:none;fill-rule:evenodd;fill:rgb(13.333333%,21.960784%,33.72549%);fill-opacity:1;" d="M 134.472656 128.042969 C 133.386719 136.585938 132.410156 145.140625 131.542969 153.707031 C 127.246094 153.707031 122.949219 153.707031 118.652344 153.707031 C 119.054688 150.375 119.835938 147.265625 120.996094 144.375 C 122.800781 144.785156 124.558594 145.367188 126.269531 146.125 C 126.820312 146.0625 127.308594 145.867188 127.734375 145.542969 C 127.875 141.816406 128.265625 138.121094 128.90625 134.457031 C 129.953125 131.574219 131.808594 129.4375 134.472656 128.042969 Z M 134.472656 128.042969 "/>
<path style=" stroke:none;fill-rule:evenodd;fill:rgb(9.803922%,17.254902%,29.019608%);fill-opacity:1;" d="M 74.707031 125.707031 C 74.707031 131.734375 74.707031 137.765625 74.707031 143.792969 C 73.488281 144.066406 72.316406 144.453125 71.191406 144.957031 C 64.386719 143.285156 57.746094 141.144531 51.269531 138.542969 C 50.242188 137.929688 49.851562 136.957031 50.097656 135.625 C 50.097656 135.429688 50.097656 135.234375 50.097656 135.042969 C 50.621094 135.398438 51.207031 135.589844 51.855469 135.625 C 53.269531 136.460938 54.832031 136.753906 56.542969 136.5 C 55.957031 135.917969 55.371094 135.332031 54.785156 134.75 C 54.980469 134.652344 55.175781 134.554688 55.371094 134.457031 C 57.816406 135.539062 60.355469 135.832031 62.988281 135.332031 C 61.851562 134.496094 61.070312 133.429688 60.644531 132.125 C 64.15625 127.519531 68.84375 125.382812 74.707031 125.707031 Z M 74.707031 125.707031 "/>
<use xlink:href="#surface35" mask="url(#mask10)"/>
<path style=" stroke:none;fill-rule:evenodd;fill:rgb(16.862745%,39.215686%,53.333333%);fill-opacity:1;" d="M 50.097656 135.625 C 49.851562 136.957031 50.242188 137.929688 51.269531 138.542969 C 49.421875 138.972656 47.46875 138.972656 45.410156 138.542969 C 45.410156 140.679688 45.410156 142.820312 45.410156 144.957031 C 42.84375 145.644531 40.304688 146.421875 37.792969 147.292969 C 37.617188 144.800781 37.8125 142.371094 38.378906 140 C 37.476562 139.351562 37.085938 138.476562 37.207031 137.375 C 40.632812 137.746094 43.953125 137.746094 47.167969 137.375 C 47.957031 137.683594 48.738281 137.78125 49.511719 137.667969 C 46.96875 135 47.164062 134.320312 50.097656 135.625 Z M 50.097656 135.625 "/>
<path style=" stroke:none;fill-rule:evenodd;fill:rgb(37.254902%,57.254902%,74.117647%);fill-opacity:1;" d="M 27.832031 130.957031 C 29.824219 131.164062 31.777344 131.550781 33.691406 132.125 C 33.871094 133.539062 33.675781 134.898438 33.105469 136.207031 C 30.917969 136.550781 28.769531 137.039062 26.660156 137.667969 C 39.269531 139.035156 39.464844 139.816406 27.246094 140 C 22.871094 140.863281 19.453125 143.101562 16.992188 146.707031 C 14.839844 144.621094 12.398438 143.066406 9.667969 142.042969 C 10.808594 137.398438 13.542969 133.898438 17.871094 131.542969 C 17.90625 131.859375 18.101562 132.050781 18.457031 132.125 C 21.484375 131.09375 24.609375 130.707031 27.832031 130.957031 Z M 27.832031 130.957031 "/>
<use xlink:href="#surface38" mask="url(#mask11)"/>
<path style=" stroke:none;fill-rule:evenodd;fill:rgb(7.843137%,30.588235%,43.529412%);fill-opacity:1;" d="M 51.269531 138.542969 C 57.746094 141.144531 64.386719 143.285156 71.191406 144.957031 C 70.214844 145.542969 69.433594 146.320312 68.847656 147.292969 C 65.230469 145.441406 61.324219 144.46875 57.128906 144.375 C 55.082031 144.613281 53.128906 145.195312 51.269531 146.125 C 49.46875 145.144531 47.515625 144.757812 45.410156 144.957031 C 45.410156 142.820312 45.410156 140.679688 45.410156 138.542969 C 47.46875 138.972656 49.421875 138.972656 51.269531 138.542969 Z M 51.269531 138.542969 "/>
<path style=" stroke:none;fill-rule:evenodd;fill:rgb(16.862745%,26.666667%,41.960784%);fill-opacity:1;" d="M 108.691406 142.042969 C 112.921875 141.824219 117.023438 142.40625 120.996094 143.792969 C 120.996094 143.984375 120.996094 144.179688 120.996094 144.375 C 119.835938 147.265625 119.054688 150.375 118.652344 153.707031 C 107.910156 153.707031 97.167969 153.707031 86.425781 153.707031 C 87.601562 151.371094 89.554688 150.203125 92.285156 150.207031 C 96.066406 150.8125 99.777344 151.492188 103.417969 152.25 C 102.511719 151.542969 101.828125 150.667969 101.367188 149.625 C 101.425781 144.996094 103.867188 142.46875 108.691406 142.042969 Z M 108.691406 142.042969 "/>
<path style=" stroke:none;fill-rule:evenodd;fill:rgb(6.27451%,11.764706%,21.960784%);fill-opacity:1;" d="M 57.128906 144.375 C 61.324219 144.46875 65.230469 145.441406 68.847656 147.292969 C 69.074219 149.65625 70.246094 151.40625 72.363281 152.542969 C 66.308594 152.542969 60.253906 152.542969 54.199219 152.542969 C 54.480469 150.816406 55.359375 149.457031 56.835938 148.457031 C 57.125 147.109375 57.222656 145.75 57.128906 144.375 Z M 57.128906 144.375 "/>
<path style=" stroke:none;fill-rule:evenodd;fill:rgb(10.196078%,18.431373%,30.588235%);fill-opacity:1;" d="M 57.128906 144.375 C 57.222656 145.75 57.125 147.109375 56.835938 148.457031 C 55.359375 149.457031 54.480469 150.816406 54.199219 152.542969 C 53.417969 152.734375 52.636719 152.929688 51.855469 153.125 C 51.242188 150.382812 49.484375 149.214844 46.582031 149.625 C 44.160156 149.742188 41.816406 150.226562 39.550781 151.082031 C 39.0625 151.671875 38.867188 152.355469 38.964844 153.125 C 35.253906 153.125 31.542969 153.125 27.832031 153.125 C 27.898438 152.765625 28.09375 152.472656 28.417969 152.25 C 31.355469 151.910156 34.285156 151.519531 37.207031 151.082031 C 37.746094 149.894531 37.941406 148.628906 37.792969 147.292969 C 40.304688 146.421875 42.84375 145.644531 45.410156 144.957031 C 47.515625 144.757812 49.46875 145.144531 51.269531 146.125 C 53.128906 145.195312 55.082031 144.613281 57.128906 144.375 Z M 57.128906 144.375 "/>
<use xlink:href="#surface41" mask="url(#mask12)"/>
<path style=" stroke:none;fill-rule:evenodd;fill:rgb(6.27451%,11.764706%,21.568627%);fill-opacity:1;" d="M 51.855469 153.125 C 51.464844 153.125 51.269531 153.320312 51.269531 153.707031 C 47.167969 153.707031 43.066406 153.707031 38.964844 153.707031 C 38.964844 153.515625 38.964844 153.320312 38.964844 153.125 C 38.867188 152.355469 39.0625 151.671875 39.550781 151.082031 C 41.816406 150.226562 44.160156 149.742188 46.582031 149.625 C 49.484375 149.214844 51.242188 150.382812 51.855469 153.125 Z M 51.855469 153.125 "/>
</g>
</svg>
