<?xml version="1.0" encoding="UTF-8"?>
<!DOCTYPE svg PUBLIC "-//W3C//DTD SVG 1.1//EN" "http://www.w3.org/Graphics/SVG/1.1/DTD/svg11.dtd">
<svg xmlns="http://www.w3.org/2000/svg" version="1.1" width="1481px" height="1710px" style="shape-rendering:geometricPrecision; text-rendering:geometricPrecision; image-rendering:optimizeQuality; fill-rule:evenodd; clip-rule:evenodd" xmlns:xlink="http://www.w3.org/1999/xlink">
<g><path style="opacity:0.998" fill="#fefefe" d="M 737.5,-0.5 C 739.167,-0.5 740.833,-0.5 742.5,-0.5C 988.165,142.002 1234.17,284.002 1480.5,425.5C 1480.5,711.5 1480.5,997.5 1480.5,1283.5C 1234.17,1425 988.165,1567 742.5,1709.5C 740.833,1709.5 739.167,1709.5 737.5,1709.5C 491.835,1567 245.835,1425 -0.5,1283.5C -0.5,997.5 -0.5,711.5 -0.5,425.5C 245.835,284.002 491.835,142.002 737.5,-0.5 Z"/></g>
<g><path style="opacity:1" fill="#37deaa" d="M 734.5,160.5 C 735.666,625.666 735.833,1091 735,1556.5C 572.418,1463.13 409.918,1369.63 247.5,1276C 246.551,1275.38 245.718,1275.55 245,1276.5C 206.339,1254.67 168.005,1232.34 130,1209.5C 129.333,977.833 129.333,746.167 130,514.5C 168.333,492.167 206.667,469.833 245,447.5C 245.333,671.833 245.667,896.167 246,1120.5C 281.667,1141.17 317.333,1161.83 353,1182.5C 353.333,914.833 353.667,647.167 354,379.5C 392.333,357.167 430.667,334.833 469,312.5C 469.333,624.833 469.667,937.167 470,1249.5C 519.667,1278.17 569.333,1306.83 619,1335.5C 619.333,966.167 619.667,596.833 620,227.5C 658.312,205.266 696.478,182.933 734.5,160.5 Z"/></g>
<g><path style="opacity:1" fill="#37deaa" d="M 846.5,216.5 C 885.054,238.695 923.554,261.029 962,283.5C 962.167,406.501 962.667,529.501 963.5,652.5C 1055.67,705.753 1148,758.753 1240.5,811.5C 1241.17,920.833 1241.83,1030.17 1242.5,1139.5C 1275.08,1120.29 1307.58,1100.96 1340,1081.5C 1340.83,1125.07 1340.66,1168.57 1339.5,1212C 1268.91,1254.54 1198.08,1296.71 1127,1338.5C 1125.83,1192.31 1125,1045.97 1124.5,899.5C 1070.59,868.626 1016.75,837.626 963,806.5C 962.833,1012.83 962.333,1219.17 961.5,1425.5C 923.088,1447.12 884.922,1469.12 847,1491.5C 846.5,1066.5 846.333,641.5 846.5,216.5 Z"/></g>
<g><path style="opacity:1" fill="#c05510" d="M 1278.5,481.5 C 1279.55,481.351 1280.55,481.517 1281.5,482C 1285.2,484.513 1288.87,487.013 1292.5,489.5C 1281.83,495.833 1271.17,502.167 1260.5,508.5C 1259.67,537.494 1259.17,566.494 1259,595.5C 1254.67,592.833 1250.33,590.167 1246,587.5C 1245.83,564.16 1245.33,540.826 1244.5,517.5C 1237.54,521.301 1230.7,525.301 1224,529.5C 1223.33,524.167 1223.33,518.833 1224,513.5C 1242.31,502.933 1260.48,492.266 1278.5,481.5 Z"/></g>
<g><path style="opacity:1" fill="#bf5510" d="M 1335.5,513.5 C 1335.83,521.352 1335.49,529.018 1334.5,536.5C 1330.73,534.779 1327.06,532.779 1323.5,530.5C 1322.83,527.5 1322.17,524.5 1321.5,521.5C 1314.9,517.953 1308.4,514.286 1302,510.5C 1295.36,513.655 1289.02,517.321 1283,521.5C 1282.19,527.084 1282.36,532.584 1283.5,538C 1301,547.58 1318.33,557.414 1335.5,567.5C 1336.82,578.728 1336.82,589.895 1335.5,601C 1324.4,607.301 1313.23,613.467 1302,619.5C 1290.54,613.526 1279.38,607.193 1268.5,600.5C 1267.87,592.427 1268.53,584.76 1270.5,577.5C 1274.02,580.184 1277.85,582.518 1282,584.5C 1282.18,587.553 1282.68,590.553 1283.5,593.5C 1289.6,596.968 1295.77,600.301 1302,603.5C 1308.73,600.22 1315.23,596.554 1321.5,592.5C 1322.83,586.833 1322.83,581.167 1321.5,575.5C 1303.87,565.7 1286.37,555.7 1269,545.5C 1268.33,534.833 1268.33,524.167 1269,513.5C 1279.69,506.654 1290.69,500.321 1302,494.5C 1313.1,500.965 1324.26,507.298 1335.5,513.5 Z"/></g>
<g><path style="opacity:1" fill="#e2a47a" d="M 1335.5,513.5 C 1336.82,521.343 1336.82,529.343 1335.5,537.5C 1334.89,537.376 1334.56,537.043 1334.5,536.5C 1335.49,529.018 1335.83,521.352 1335.5,513.5 Z"/></g>
<g><path style="opacity:1" fill="#bf540e" d="M 1235.5,532.5 C 1236.17,552.5 1236.83,572.5 1237.5,592.5C 1237.84,593.338 1238.51,593.672 1239.5,593.5C 1257.1,603.974 1274.77,614.474 1292.5,625C 1288.01,628.751 1283.01,631.084 1277.5,632C 1259.96,621.634 1242.3,611.467 1224.5,601.5C 1223.17,580.5 1223.17,559.5 1224.5,538.5C 1228.18,536.472 1231.85,534.472 1235.5,532.5 Z"/></g>
<g><path style="opacity:1" fill="#d48149" d="M 1235.5,532.5 C 1235.84,531.662 1236.51,531.328 1237.5,531.5C 1237.5,551.833 1237.5,572.167 1237.5,592.5C 1236.83,572.5 1236.17,552.5 1235.5,532.5 Z"/></g>
<g><path style="opacity:1" fill="#f6e9e0" d="M 1237.5,531.5 C 1238.18,552.069 1238.84,572.735 1239.5,593.5C 1238.51,593.672 1237.84,593.338 1237.5,592.5C 1237.5,572.167 1237.5,551.833 1237.5,531.5 Z"/></g>
<g><path style="opacity:1" fill="#e8c1a8" d="M 1270.5,577.5 C 1268.53,584.76 1267.87,592.427 1268.5,600.5C 1267.51,592.684 1267.17,584.684 1267.5,576.5C 1268.79,576.263 1269.79,576.596 1270.5,577.5 Z"/></g>
</svg>
